<?xml version="1.0" standalone="no"?>
<!DOCTYPE svg PUBLIC "-//W3C//DTD SVG 20010904//EN"
 "http://www.w3.org/TR/2001/REC-SVG-20010904/DTD/svg10.dtd">
<svg version="1.0" xmlns="http://www.w3.org/2000/svg"
 width="512.000000pt" height="512.000000pt" viewBox="0 0 512.000000 512.000000"
 preserveAspectRatio="xMidYMid meet">

<g transform="translate(0.000000,512.000000) scale(0.100000,-0.100000)"
fill="#000000" stroke="none">
<path d="M3015 4915 c-30 -29 -32 -74 -6 -106 16 -20 31 -25 90 -29 l71 -5
-295 -301 -295 -302 -42 15 c-77 26 -179 10 -259 -43 -26 -17 -28 -16 -200 78
l-174 95 -6 69 c-6 84 -17 111 -66 165 -162 180 -465 72 -467 -166 -1 -33 2
-73 6 -90 7 -29 2 -34 -241 -230 -144 -116 -257 -199 -267 -198 -11 1 -37 8
-59 17 -85 32 -190 13 -263 -50 -147 -125 -113 -369 63 -450 187 -87 401 62
382 265 -3 31 -7 62 -8 70 -5 18 491 423 511 417 8 -3 33 -12 55 -20 78 -30
181 -14 250 38 l31 24 176 -96 176 -95 4 -67 c21 -290 399 -359 519 -95 23 49
25 152 5 200 l-15 35 292 296 292 297 6 -63 c5 -49 11 -68 29 -82 31 -26 82
-23 108 5 21 22 22 32 22 201 0 239 13 226 -225 226 -173 0 -176 0 -200 -25z
m-1304 -464 c24 -24 29 -38 29 -76 0 -40 -5 -52 -34 -81 -40 -40 -83 -45 -132
-15 -96 58 -52 201 63 201 36 0 50 -6 74 -29z m815 -445 c28 -28 34 -42 34
-76 0 -34 -6 -48 -34 -76 -46 -46 -101 -48 -148 -5 -29 26 -33 35 -33 81 0 46
4 55 33 81 47 43 102 41 148 -5z m-1729 -299 c17 -16 27 -40 30 -71 5 -42 3
-48 -30 -81 -75 -75 -187 -28 -187 81 0 28 8 44 35 71 33 33 39 35 81 30 31
-3 55 -13 71 -30z"/>
<path d="M3041 4209 c-52 -21 -50 3 -51 -706 l0 -663 -27 -5 c-16 -4 -45 -10
-65 -15 l-38 -8 -1 212 c0 229 -7 272 -49 293 -18 9 -104 13 -328 13 -327 0
-355 -4 -367 -53 -3 -12 -4 -380 -3 -817 3 -781 4 -796 25 -872 95 -333 323
-588 632 -704 183 -69 408 -82 601 -34 83 20 243 90 298 129 l29 20 91 -92
c90 -91 92 -93 92 -140 0 -26 6 -60 14 -75 22 -41 477 -490 509 -502 75 -27
134 -4 234 92 101 97 133 148 133 210 0 27 -6 61 -14 76 -8 15 -122 134 -253
264 -204 203 -243 237 -276 243 -20 4 -48 5 -61 3 -20 -4 -41 12 -116 87 l-92
92 32 52 c109 177 162 416 140 624 -28 249 -129 456 -309 630 l-81 79 -2 764
-3 763 -23 23 c-22 23 -24 23 -335 25 -187 1 -322 -2 -336 -8z m537 -812 l2
-657 -37 16 c-109 47 -204 71 -345 89 l-48 6 0 605 0 604 213 -2 212 -3 3
-658z m-888 -437 l0 -210 -42 -21 c-115 -59 -231 -155 -320 -267 l-58 -73 0
390 0 391 210 0 210 0 0 -210z m646 -301 c515 -135 782 -703 558 -1187 -112
-245 -346 -426 -613 -476 -381 -72 -762 120 -927 469 -58 122 -74 189 -81 327
-13 258 68 463 256 648 76 76 114 105 186 142 97 50 194 83 290 98 84 13 240
3 331 -21z m659 -1698 c-14 -14 -24 -7 -92 61 -67 67 -75 79 -63 93 12 14 22
8 92 -62 69 -69 76 -79 63 -92z m407 -248 c115 -114 208 -212 208 -218 0 -6
-34 -44 -75 -85 l-75 -75 -210 210 c-116 115 -210 214 -210 220 0 10 140 155
150 155 3 0 98 -93 212 -207z"/>
<path d="M3000 2633 c-320 -54 -578 -287 -661 -598 -30 -112 -30 -288 0 -400
79 -294 296 -510 590 -586 106 -28 277 -27 386 1 149 38 273 108 377 212 204
204 285 511 208 788 -68 240 -263 453 -495 540 -114 42 -296 61 -405 43z m328
-186 c148 -52 274 -153 350 -283 219 -374 22 -850 -398 -959 -82 -21 -234 -21
-315 0 -192 51 -344 176 -425 350 -50 106 -64 170 -64 285 1 176 60 316 189
446 90 90 178 142 297 174 104 29 264 23 366 -13z"/>
<path d="M1273 3590 c-12 -5 -26 -18 -32 -29 -8 -13 -11 -293 -11 -889 0 -841
1 -871 19 -893 l19 -24 332 0 332 0 19 24 c18 22 19 52 19 896 0 844 -1 874
-19 896 l-19 24 -319 2 c-175 1 -328 -2 -340 -7z m537 -915 l0 -765 -210 0
-210 0 0 765 0 765 210 0 210 0 0 -765z"/>
<path d="M370 2810 c-19 -19 -20 -33 -20 -514 0 -471 1 -495 19 -517 l19 -24
309 -3 c169 -2 318 0 331 3 12 3 31 14 42 25 19 19 20 35 20 513 l0 494 -23
21 c-23 22 -28 22 -350 22 -314 0 -328 -1 -347 -20z m560 -520 l0 -380 -210 0
-210 0 0 380 0 380 210 0 210 0 0 -380z"/>
</g>
</svg>
