<?xml version="1.0" standalone="no"?>
<!DOCTYPE svg PUBLIC "-//W3C//DTD SVG 20010904//EN"
 "http://www.w3.org/TR/2001/REC-SVG-20010904/DTD/svg10.dtd">
<svg version="1.0" xmlns="http://www.w3.org/2000/svg"
 width="512.000000pt" height="512.000000pt" viewBox="0 0 512.000000 512.000000"
 preserveAspectRatio="xMidYMid meet">

<g transform="translate(0.000000,512.000000) scale(0.100000,-0.100000)"
fill="#000000" stroke="none">
<path d="M3050 4870 c-226 -32 -439 -112 -620 -233 -116 -77 -158 -115 -165
-148 -9 -39 2 -55 142 -205 137 -148 144 -150 240 -80 131 96 268 154 420 181
486 85 966 -227 1087 -706 26 -103 45 -289 29 -289 -6 0 -36 9 -68 20 -32 11
-69 20 -82 20 -32 0 -73 -43 -73 -75 0 -15 54 -160 121 -323 128 -317 147
-349 200 -338 32 6 556 338 582 368 23 27 22 69 -2 95 -11 12 -63 35 -116 53
-76 25 -95 35 -91 48 13 46 16 209 6 307 -35 350 -175 648 -421 895 -196 197
-445 331 -728 390 -110 24 -358 34 -461 20z m425 -175 c512 -106 899 -493
1006 -1008 25 -121 30 -331 10 -446 -12 -68 -12 -75 6 -99 11 -14 41 -33 68
-42 l48 -16 -149 -96 c-102 -65 -151 -91 -156 -83 -12 20 -128 308 -125 311 1
1 21 -3 44 -9 38 -10 46 -9 70 9 38 28 44 60 45 214 1 144 -9 217 -49 345 -95
305 -340 574 -632 696 -149 62 -249 82 -421 83 -233 1 -401 -43 -588 -155
l-84 -51 -25 24 c-14 12 -38 39 -54 60 l-29 36 63 40 c155 98 339 169 507 196
117 19 331 15 445 -9z"/>
<path d="M1425 4470 c-149 -27 -271 -94 -385 -209 -132 -133 -195 -275 -207
-462 l-6 -97 -65 -7 c-142 -15 -258 -70 -358 -170 -271 -272 -190 -737 158
-904 98 -47 167 -61 300 -61 l98 0 0 -295 0 -296 25 -24 24 -25 591 0 591 0
24 25 25 24 0 296 0 295 83 0 c350 0 637 277 637 615 0 133 -50 274 -134 384
-76 99 -229 200 -282 187 -53 -14 -79 -69 -54 -116 5 -10 35 -32 66 -50 188
-106 281 -315 229 -515 -21 -81 -58 -144 -118 -205 -96 -95 -207 -140 -354
-140 l-73 0 0 295 0 296 -25 24 -24 25 -591 0 -591 0 -24 -25 -25 -24 0 -297
0 -296 -122 4 c-113 3 -128 6 -193 36 -163 76 -256 233 -242 405 20 231 247
408 472 369 67 -11 104 -2 124 30 11 17 11 37 0 115 -17 126 -3 218 51 330
129 267 457 385 726 263 211 -96 333 -286 334 -522 0 -93 5 -107 43 -123 37
-16 113 -1 145 28 30 28 30 81 -2 110 -16 15 -25 38 -30 77 -23 176 -83 299
-210 425 -99 99 -177 146 -301 185 -80 24 -249 35 -330 20z m655 -1510 l0
-240 -480 0 -480 0 0 240 0 240 480 0 480 0 0 -240z m0 -640 l0 -240 -480 0
-480 0 0 240 0 240 480 0 480 0 0 -240z"/>
<path d="M1385 3015 c-16 -15 -25 -36 -25 -55 0 -19 9 -40 25 -55 24 -25 26
-25 215 -25 189 0 191 0 215 25 16 15 25 36 25 55 0 19 -9 40 -25 55 -24 25
-26 25 -215 25 -189 0 -191 0 -215 -25z"/>
<path d="M1385 2375 c-16 -15 -25 -36 -25 -55 0 -19 9 -40 25 -55 24 -25 26
-25 215 -25 189 0 191 0 215 25 16 15 25 36 25 55 0 19 -9 40 -25 55 -24 25
-26 25 -215 25 -189 0 -191 0 -215 -25z"/>
<path d="M3345 2790 c-149 -27 -271 -94 -385 -209 -132 -133 -195 -275 -207
-462 l-6 -97 -65 -7 c-142 -15 -258 -70 -358 -170 -271 -272 -190 -737 158
-904 98 -47 167 -61 300 -61 l98 0 0 -295 0 -296 25 -24 24 -25 591 0 591 0
24 25 25 24 0 296 0 295 83 0 c350 0 637 277 637 615 0 248 -161 485 -391 575
-78 30 -211 52 -265 43 -31 -5 -31 -4 -38 49 -23 175 -84 297 -210 423 -99 99
-177 146 -301 185 -80 24 -249 35 -330 20z m230 -161 c130 -24 264 -107 341
-211 79 -108 114 -215 114 -355 0 -70 3 -86 20 -103 26 -26 31 -26 135 -12
201 27 389 -66 478 -235 97 -187 68 -388 -76 -533 -96 -95 -207 -140 -354
-140 l-73 0 0 295 0 296 -25 24 c-24 25 -26 25 -215 25 -189 0 -191 0 -215
-25 -16 -15 -25 -36 -25 -55 0 -19 9 -40 25 -55 23 -24 29 -25 160 -25 l135 0
0 -240 0 -240 -480 0 -480 0 0 240 0 240 215 0 c216 0 216 0 240 25 16 15 25
36 25 55 0 19 -9 40 -25 55 l-24 25 -271 0 -271 0 -24 -25 -25 -24 0 -297 0
-296 -122 4 c-113 3 -128 6 -193 36 -216 101 -303 340 -200 549 79 160 260
255 430 225 67 -11 104 -2 124 30 11 17 11 37 0 115 -17 126 -3 218 51 330
109 225 356 348 605 302z m425 -1989 l0 -240 -480 0 -480 0 0 240 0 240 480 0
480 0 0 -240z"/>
<path d="M3305 1335 c-16 -15 -25 -36 -25 -55 0 -19 9 -40 25 -55 24 -25 26
-25 215 -25 189 0 191 0 215 25 16 15 25 36 25 55 0 19 -9 40 -25 55 -24 25
-26 25 -215 25 -189 0 -191 0 -215 -25z"/>
<path d="M3305 695 c-16 -15 -25 -36 -25 -55 0 -19 9 -40 25 -55 24 -25 26
-25 215 -25 189 0 191 0 215 25 16 15 25 36 25 55 0 19 -9 40 -25 55 -24 25
-26 25 -215 25 -189 0 -191 0 -215 -25z"/>
</g>
</svg>
