<?xml version="1.0" standalone="no"?>
<!DOCTYPE svg PUBLIC "-//W3C//DTD SVG 20010904//EN"
 "http://www.w3.org/TR/2001/REC-SVG-20010904/DTD/svg10.dtd">
<svg version="1.0" xmlns="http://www.w3.org/2000/svg"
 width="512.000000pt" height="512.000000pt" viewBox="0 0 512.000000 512.000000"
 preserveAspectRatio="xMidYMid meet">

<g transform="translate(0.000000,512.000000) scale(0.100000,-0.100000)"
fill="#000000" stroke="none">
<path d="M437 4759 c-103 -24 -206 -111 -254 -214 l-28 -60 0 -1480 0 -1480
33 -67 c53 -109 153 -186 271 -208 34 -6 345 -10 826 -10 l772 0 -39 -257
c-20 -142 -38 -259 -38 -260 0 -1 -91 -3 -203 -5 l-204 -3 -37 -29 c-64 -48
-92 -141 -65 -213 15 -42 79 -102 119 -113 48 -13 1892 -13 1940 0 40 11 104
71 119 113 27 72 -1 165 -65 213 l-37 29 -204 3 c-200 3 -203 4 -208 25 -2 12
-18 119 -35 237 -17 118 -33 225 -35 237 l-5 22 807 3 808 3 57 23 c81 33 160
108 200 190 l33 67 0 1480 0 1480 -28 61 c-36 77 -113 154 -192 191 l-60 28
-2105 2 c-1202 0 -2121 -3 -2143 -8z m4268 -135 c51 -28 91 -68 119 -119 l21
-40 3 -1272 2 -1273 -2290 0 -2290 0 0 1258 c1 1029 3 1264 14 1295 29 80 83
134 163 163 32 11 391 13 2128 11 l2090 -2 40 -21z m143 -2951 c-4 -145 -18
-184 -84 -243 -81 -71 120 -65 -2204 -65 -2324 0 -2123 -6 -2204 65 -66 59
-80 98 -84 243 l-4 127 2292 0 2292 0 -4 -127z m-1903 -465 c16 -97 65 -444
65 -464 l0 -24 -448 0 c-247 0 -451 2 -454 5 -4 5 55 437 67 493 l5 22 380 0
379 0 6 -32z m579 -630 c22 -31 20 -58 -6 -85 l-21 -23 -936 0 -935 0 -23 22
c-27 25 -29 54 -7 86 l15 22 949 0 949 0 15 -22z"/>
<path d="M1372 4205 c-232 -42 -422 -139 -590 -299 -186 -178 -295 -384 -338
-637 l-18 -105 23 -47 c13 -26 36 -55 55 -67 32 -19 48 -20 419 -20 l386 0 19
-42 c44 -100 131 -158 237 -158 106 0 193 58 237 158 l19 42 386 0 c385 0 387
0 420 23 18 12 43 41 54 65 20 40 20 48 9 124 -72 492 -445 879 -929 962 -112
19 -287 19 -389 1z m128 -194 c0 -133 21 -173 85 -157 32 8 45 52 45 157 0
103 -8 98 117 74 160 -30 324 -102 439 -193 l56 -44 -76 -77 c-80 -80 -93
-112 -60 -145 33 -33 65 -20 145 60 l77 76 46 -58 c89 -114 161 -277 191 -437
24 -129 63 -117 -374 -117 l-377 0 -12 33 c-7 18 -28 52 -47 75 l-35 41 70
187 c41 109 68 195 64 206 -3 10 -16 26 -29 34 -20 13 -28 14 -51 2 -24 -11
-37 -40 -97 -200 l-70 -188 -52 0 c-94 0 -196 -71 -227 -157 l-12 -33 -377 0
c-437 0 -398 -12 -374 117 31 162 101 323 191 437 l46 58 77 -76 c80 -80 112
-93 145 -60 33 33 20 65 -60 145 l-76 77 58 46 c138 108 362 196 527 205 l27
1 0 -89z m131 -806 c40 -21 69 -71 69 -120 0 -76 -59 -135 -135 -135 -103 0
-167 109 -120 201 32 62 121 87 186 54z"/>
<path d="M4041 4066 c-114 -33 -141 -50 -141 -88 0 -24 35 -58 59 -58 11 0 32
5 47 10 15 6 28 9 30 8 5 -5 -86 -142 -99 -149 -7 -3 -52 -12 -102 -18 -49 -7
-100 -15 -112 -18 -14 -3 -59 -54 -119 -134 -53 -71 -100 -129 -105 -129 -45
0 -267 -35 -278 -44 -8 -6 -66 -76 -129 -156 -64 -80 -119 -148 -124 -151 -5
-3 -46 -11 -91 -18 -45 -7 -90 -20 -99 -28 -26 -24 -23 -69 6 -88 22 -14 33
-14 122 0 55 8 106 18 115 20 9 3 71 75 139 160 68 85 130 157 139 159 9 2 63
10 121 16 157 17 153 15 250 146 47 63 90 119 96 124 5 5 55 16 110 25 54 8
109 17 121 20 14 3 44 41 87 107 53 84 66 99 72 83 24 -69 34 -85 57 -90 31
-8 64 8 72 36 9 28 -53 247 -77 271 -24 24 -32 23 -167 -16z"/>
<path d="M4161 3664 c-21 -26 -21 -35 -21 -580 l0 -554 -25 0 -25 0 0 330 0
331 -25 24 c-23 24 -28 25 -175 25 -147 0 -152 -1 -175 -25 l-25 -24 0 -331 0
-330 -25 0 -25 0 0 233 c0 167 -4 239 -13 257 l-13 25 -168 3 c-147 2 -171 0
-187 -14 -18 -16 -19 -36 -19 -261 l0 -243 -30 0 -30 0 0 134 c0 109 -3 138
-16 150 -13 13 -44 16 -178 16 -207 0 -196 10 -196 -167 l0 -130 -50 -5 c-27
-3 -56 -11 -65 -18 -18 -15 -20 -71 -3 -88 9 -9 245 -12 1000 -12 l988 0 16
25 c33 51 -12 95 -97 95 l-39 0 0 560 c0 547 0 560 -20 580 -18 18 -33 20
-179 20 l-160 0 -20 -26z m259 -614 l0 -520 -80 0 -80 0 0 513 c0 283 3 517 7
520 3 4 39 7 80 7 l73 0 0 -520z m-450 -225 l0 -295 -80 0 -80 0 0 295 0 295
80 0 80 0 0 -295z m-450 -95 l0 -200 -80 0 -80 0 0 200 0 200 80 0 80 0 0
-200z m-460 -110 l0 -90 -75 0 -75 0 0 90 0 90 75 0 75 0 0 -90z"/>
<path d="M797 2742 c-24 -26 -21 -68 5 -86 20 -14 111 -16 780 -16 745 0 758
0 778 20 25 25 26 62 2 83 -17 16 -86 17 -784 17 -728 0 -766 -1 -781 -18z"/>
<path d="M797 2452 c-22 -24 -21 -65 1 -85 17 -16 86 -17 780 -17 749 0 762 0
782 20 11 11 20 29 20 40 0 11 -9 29 -20 40 -20 20 -33 20 -783 20 -727 0
-765 -1 -780 -18z"/>
<path d="M3830 1677 c-67 -33 -71 -139 -7 -177 73 -45 156 -1 157 83 0 49 -13
73 -50 92 -35 18 -67 19 -100 2z"/>
<path d="M4098 1675 c-70 -39 -64 -146 9 -184 77 -39 170 41 143 124 -6 18
-19 40 -30 50 -26 23 -89 29 -122 10z"/>
<path d="M4354 1656 c-48 -48 -47 -95 1 -143 32 -32 40 -35 77 -30 60 8 93 45
93 103 0 39 -5 50 -33 75 -46 42 -93 40 -138 -5z"/>
</g>
</svg>
